<?xml version="1.0" encoding="UTF-8"?> <svg xmlns="http://www.w3.org/2000/svg" viewBox="0 0 480 480"><path d="M 16,448 H 80 A 8,8 0 0 0 88,440 V 248 A 8,8 0 0 0 80,240 H 16 A 8,8 0 0 0 8,248 V 440 A 8,8 0 0 0 16,448 Z M 24,256 H 72 V 432 H 24 Z M 24,256 M 112,448 H 176 A 8,8 0 0 0 184,440 V 200 A 8,8 0 0 0 176,192 H 112 A 8,8 0 0 0 104,200 V 440 A 8,8 0 0 0 112,448 Z M 120,208 H 168 V 432 H 120 Z M 120,208 M 208,448 H 272 A 8,8 0 0 0 280,440 V 280 A 8,8 0 0 0 272,272 H 208 A 8,8 0 0 0 200,280 V 440 A 8,8 0 0 0 208,448 Z M 216,288 H 264 V 432 H 216 Z M 216,288 M 304,448 H 368 A 8,8 0 0 0 376,440 V 192 A 8,8 0 0 0 368,184 H 304 A 8,8 0 0 0 296,192 V 440 A 8,8 0 0 0 304,448 Z M 312,200 H 360 V 432 H 312 Z M 312,200 M 400,448 H 464 A 8,8 0 0 0 472,440 V 96 A 8,8 0 0 0 464,88 H 400 A 8,8 0 0 0 392,96 V 440 A 8,8 0 0 0 400,448 Z M 408,104 H 456 V 432 H 408 Z M 408,104 M 472,464 H 8 A 8,8 0 0 0 8,480 H 472 A 8,8 0 0 0 472,464 Z M 472,464" fill="#3e495a"></path></svg> 