<?xml version="1.0" encoding="UTF-8" standalone="no"?>
<svg
   xmlns:dc="http://purl.org/dc/elements/1.1/"
   xmlns:cc="http://creativecommons.org/ns#"
   xmlns:rdf="http://www.w3.org/1999/02/22-rdf-syntax-ns#"
   xmlns:svg="http://www.w3.org/2000/svg"
   xmlns="http://www.w3.org/2000/svg"
   viewBox="0 0 204.73334 204.73334"
   height="204.73334"
   width="204.73334"
   xml:space="preserve"
   id="svg2"
   version="1.1"><metadata
     id="metadata8"><rdf:RDF><cc:Work
         rdf:about=""><dc:format>image/svg+xml</dc:format><dc:type
           rdf:resource="http://purl.org/dc/dcmitype/StillImage" /></cc:Work></rdf:RDF></metadata><defs
     id="defs6" /><g
     transform="matrix(1.3333333,0,0,-1.3333333,0,204.73333)"
     id="g10"><g
       transform="scale(0.1)"
       id="g12"><path
         id="path14"
         style="fill:#ffffff;fill-opacity:1;fill-rule:nonzero;stroke:none"
         d="m 767.738,1501.04 c -404.343,0 -733.3161,-328.96 -733.3161,-733.306 0,-404.343 328.9731,-733.3121 733.3161,-733.3121 404.342,0 733.302,328.9691 733.302,733.3121 0,404.346 -328.96,733.306 -733.302,733.306 z M 767.738,0 C 344.398,0 0,344.398 0,767.734 c 0,423.326 344.398,767.726 767.738,767.726 423.322,0 767.722,-344.4 767.722,-767.726 C 1535.46,344.398 1191.06,0 767.738,0" /><path
         id="path16"
         style="fill:#ffffff;fill-opacity:1;fill-rule:nonzero;stroke:none"
         d="m 806.98,466.988 h -34.421 v 451.825 h -42.344 l -211.731,7.472 -28.152,-0.015 c -60.137,0 -105.293,-18.168 -138.059,-55.54 -32.871,-37.421 -48.855,-84.195 -48.855,-143.019 0,-58.773 15.984,-105.547 48.855,-142.996 32.766,-37.375 77.938,-55.543 138.059,-55.543 43.496,0 80.051,9.051 108.633,26.91 l 18.23,-29.211 c -34.136,-21.32 -76.824,-32.133 -126.863,-32.133 -69.644,0 -124.812,22.633 -163.949,67.27 -38.082,43.39 -57.391,99.144 -57.391,165.703 0,66.605 19.309,122.359 57.403,165.723 39.125,44.629 94.281,67.261 163.937,67.261 h 28.77 l 211.726,-7.465 41.969,0.012 c 5.058,120.858 89.984,189.858 234.733,189.858 57.45,0 105.49,-9.72 142.82,-28.9 l -15.75,-30.62 c -32.4,16.65 -75.15,25.1 -127.07,25.1 -74.893,0 -200.55,-21.71 -200.55,-167.051 V 466.988" /><path
         id="path18"
         style="fill:#ffffff;fill-opacity:1;fill-rule:nonzero;stroke:none"
         d="m 1144.98,466.988 h -34.43 V 918.813 H 778.711 v 34.429 H 1144.98 V 466.988" /></g></g></svg>