<?xml version="1.0" encoding="UTF-8" standalone="no"?>
<svg
   xmlns:dc="http://purl.org/dc/elements/1.1/"
   xmlns:cc="http://creativecommons.org/ns#"
   xmlns:rdf="http://www.w3.org/1999/02/22-rdf-syntax-ns#"
   xmlns:svg="http://www.w3.org/2000/svg"
   xmlns="http://www.w3.org/2000/svg"
   viewBox="0 0 377.22668 164.09332"
   height="164.09332"
   width="377.22668"
   xml:space="preserve"
   id="svg2"
   version="1.1"><metadata
     id="metadata8"><rdf:RDF><cc:Work
         rdf:about=""><dc:format>image/svg+xml</dc:format><dc:type
           rdf:resource="http://purl.org/dc/dcmitype/StillImage" /></cc:Work></rdf:RDF></metadata><defs
     id="defs6" /><g
     transform="matrix(1.3333333,0,0,-1.3333333,0,164.09333)"
     id="g10"><g
       transform="scale(0.1)"
       id="g12"><path
         id="path14"
         style="fill:#ffffff;fill-opacity:1;fill-rule:nonzero;stroke:none"
         d="m 11.7773,347.012 c 7.8711,6.711 18.0743,10.07 30.6329,10.07 12.539,0 22.7421,-3.359 30.5976,-10.07 7.8633,-6.715 11.793,-15.727 11.793,-27.035 H 71.5547 c 0,8.125 -2.6289,14.468 -7.8867,19.019 -5.2539,4.547 -12.3477,6.82 -21.2578,6.82 -8.9375,0 -16.0352,-2.273 -21.2813,-6.82 -5.2617,-4.551 -7.8945,-10.894 -7.8945,-19.019 v -38.426 c 0,-7.426 2.6992,-13.258 8.1015,-17.496 5.375,-4.242 12.3946,-6.364 21.0743,-6.364 8.6445,0 15.6679,2.122 21.0586,6.364 5.3867,4.238 8.0859,10.07 8.0859,17.496 h 13.2461 c 0,-11.043 -4.0235,-19.77 -12.0508,-26.172 -8.0508,-6.41 -18.1602,-9.613 -30.3398,-9.613 -12.2149,0 -22.3164,3.203 -30.3594,9.613 C 4.01563,261.781 0,270.508 0,281.551 v 38.426 c 0,11.308 3.91797,20.32 11.7773,27.035" /><path
         id="path16"
         style="fill:#ffffff;fill-opacity:1;fill-rule:nonzero;stroke:none"
         d="m 257.066,317.328 c 0,8.481 -2.734,15.352 -8.218,20.606 -5.465,5.254 -12.446,7.882 -20.926,7.882 -8.481,0 -15.457,-2.628 -20.942,-7.882 -5.484,-5.254 -8.203,-12.125 -8.203,-20.606 v -33.133 c 0,-7.945 2.684,-14.351 8.071,-19.211 5.39,-4.859 12.414,-7.293 21.074,-7.293 8.648,0 15.672,2.434 21.07,7.293 5.375,4.86 8.074,11.266 8.074,19.211 z m 13.262,0 v -33.133 c 0,-11.746 -4.035,-21.093 -12.137,-28.023 -8.078,-6.938 -18.171,-10.406 -30.269,-10.406 -12.113,0 -22.199,3.468 -30.285,10.406 -8.086,6.93 -12.121,16.277 -12.121,28.023 v 33.133 c 0,12.012 4.035,21.645 12.121,28.891 8.086,7.238 18.172,10.863 30.285,10.863 12.098,0 22.191,-3.602 30.269,-10.801 8.102,-7.199 12.137,-16.855 12.137,-28.953" /><path
         id="path18"
         style="fill:#ffffff;fill-opacity:1;fill-rule:nonzero;stroke:none"
         d="M 416.086,343.168 H 386.941 V 302.09 h 29.145 c 7.43,0 12.809,2.027 16.176,6.094 3.343,4.058 5.031,8.879 5.031,14.445 0,5.562 -1.688,10.379 -5.031,14.445 -3.367,4.063 -8.746,6.094 -16.176,6.094 z m 14.715,-50.09 27.691,-44.656 h -15.898 l -25.18,42.402 h -1.328 -29.145 V 248.422 H 373.68 v 106.012 h 42.406 c 6.355,0 11.883,-0.977 16.566,-2.918 4.684,-1.942 8.258,-4.532 10.743,-7.754 2.46,-3.227 4.277,-6.582 5.421,-10.067 1.149,-3.492 1.723,-7.183 1.723,-11.066 0,-6.363 -1.566,-12.285 -4.707,-17.758 -3.129,-5.48 -8.148,-9.41 -15.031,-11.793" /><path
         id="path20"
         style="fill:#ffffff;fill-opacity:1;fill-rule:nonzero;stroke:none"
         d="M 598.945,343.168 H 569.801 V 302.09 h 29.144 c 7.434,0 12.821,2.027 16.18,6.094 3.352,4.058 5.039,8.879 5.039,14.445 0,5.562 -1.687,10.379 -5.039,14.445 -3.359,4.063 -8.746,6.094 -16.18,6.094 z m 0,11.266 c 6.368,0 11.903,-0.977 16.582,-2.918 4.684,-1.942 8.258,-4.532 10.731,-7.754 2.469,-3.227 4.277,-6.582 5.433,-10.067 1.149,-3.492 1.719,-7.183 1.719,-11.066 0,-3.891 -0.57,-7.578 -1.719,-11.07 -1.156,-3.489 -2.964,-6.84 -5.433,-10.067 -2.473,-3.222 -6.047,-5.808 -10.731,-7.754 -4.679,-1.941 -10.214,-2.914 -16.582,-2.914 h -29.144 v -42.402 h -13.246 v 106.012 h 42.39" /><path
         id="path22"
         style="fill:#ffffff;fill-opacity:1;fill-rule:nonzero;stroke:none"
         d="m 803.023,317.328 c 0,8.481 -2.734,15.352 -8.218,20.606 -5.465,5.254 -12.446,7.882 -20.926,7.882 -8.481,0 -15.457,-2.628 -20.938,-7.882 -5.484,-5.254 -8.207,-12.125 -8.207,-20.606 v -33.133 c 0,-7.945 2.684,-14.351 8.075,-19.211 5.386,-4.859 12.41,-7.293 21.07,-7.293 8.648,0 15.672,2.434 21.074,7.293 5.375,4.86 8.07,11.266 8.07,19.211 z m 13.262,0 v -33.133 c 0,-11.746 -4.039,-21.093 -12.137,-28.023 -8.074,-6.938 -18.171,-10.406 -30.269,-10.406 -12.113,0 -22.191,3.468 -30.285,10.406 -8.086,6.93 -12.121,16.277 -12.121,28.023 v 33.133 c 0,12.012 4.035,21.645 12.121,28.891 8.094,7.238 18.172,10.863 30.285,10.863 12.098,0 22.195,-3.602 30.269,-10.801 8.098,-7.199 12.137,-16.855 12.137,-28.953" /><path
         id="path24"
         style="fill:#ffffff;fill-opacity:1;fill-rule:nonzero;stroke:none"
         d="M 962.047,343.168 H 932.898 V 302.09 h 29.149 c 7.426,0 12.805,2.027 16.172,6.094 3.344,4.058 5.031,8.879 5.031,14.445 0,5.562 -1.687,10.379 -5.031,14.445 -3.367,4.063 -8.746,6.094 -16.172,6.094 z m 14.719,-50.09 27.684,-44.656 h -15.899 l -25.18,42.402 h -1.324 -29.149 v -42.402 h -13.257 v 106.012 h 42.406 c 6.351,0 11.887,-0.977 16.566,-2.918 4.684,-1.942 8.254,-4.532 10.739,-7.754 2.461,-3.227 4.277,-6.582 5.425,-10.067 1.149,-3.492 1.719,-7.183 1.719,-11.066 0,-6.363 -1.562,-12.285 -4.707,-17.758 -3.129,-5.48 -8.144,-9.41 -15.023,-11.793" /><path
         id="path26"
         style="fill:#ffffff;fill-opacity:1;fill-rule:nonzero;stroke:none"
         d="m 1163.6,282.215 -21.33,55.121 -21.34,-55.121 z m 27.71,-33.793 h -14.59 l -8.48,21.863 h -51.95 l -8.49,-21.863 h -14.57 l 42.41,106.012 h 13.26 l 42.41,-106.012" /><path
         id="path28"
         style="fill:#ffffff;fill-opacity:1;fill-rule:nonzero;stroke:none"
         d="m 1273.45,342.508 v 11.926 h 63.61 v -11.926 h -25.18 v -94.086 h -13.25 v 94.086 h -25.18" /><path
         id="path30"
         style="fill:#ffffff;fill-opacity:1;fill-rule:nonzero;stroke:none"
         d="m 1449.7,260.344 h 53 v -11.922 h -66.25 v 11.922 35.117 11.926 35.121 11.926 h 13.25 51.69 v -11.926 h -51.69 v -35.121 h 47.71 v -11.926 h -47.71 v -35.117" /><path
         id="path32"
         style="fill:#ffffff;fill-opacity:1;fill-rule:nonzero;stroke:none"
         d="m 1745.21,248.422 h -13.25 v 106.012 h 64.94 v -11.926 h -51.69 v -35.121 h 47.71 v -11.926 h -47.71 v -47.039" /><path
         id="path34"
         style="fill:#ffffff;fill-opacity:1;fill-rule:nonzero;stroke:none"
         d="m 1898.93,354.434 h 13.24 V 248.422 h -13.24 v 106.012" /><path
         id="path36"
         style="fill:#ffffff;fill-opacity:1;fill-rule:nonzero;stroke:none"
         d="m 2032.77,248.422 h -13.26 v 106.012 h 13.26 l 53,-83.485 v 83.485 h 13.25 V 248.422 h -13.25 l -53,83.484 v -83.484" /><path
         id="path38"
         style="fill:#ffffff;fill-opacity:1;fill-rule:nonzero;stroke:none"
         d="m 2266.13,282.215 -21.34,55.121 -21.33,-55.121 z m 27.7,-33.793 h -14.59 l -8.48,21.863 h -51.95 l -8.48,-21.863 h -14.57 l 42.4,106.012 h 13.26 l 42.41,-106.012" /><path
         id="path40"
         style="fill:#ffffff;fill-opacity:1;fill-rule:nonzero;stroke:none"
         d="m 2403.8,248.422 h -13.24 v 106.012 h 13.24 l 53.01,-83.485 v 83.485 h 13.26 V 248.422 h -13.26 l -53.01,83.484 v -83.484" /><path
         id="path42"
         style="fill:#ffffff;fill-opacity:1;fill-rule:nonzero;stroke:none"
         d="m 2586.54,347.012 c 7.86,6.711 18.07,10.07 30.62,10.07 12.54,0 22.74,-3.359 30.62,-10.07 7.86,-6.715 11.77,-15.727 11.77,-27.035 h -13.23 c 0,8.125 -2.64,14.468 -7.9,19.019 -5.25,4.547 -12.34,6.82 -21.26,6.82 -8.93,0 -16.02,-2.273 -21.27,-6.82 -5.26,-4.551 -7.89,-10.894 -7.89,-19.019 v -38.426 c 0,-7.426 2.7,-13.258 8.09,-17.496 5.39,-4.242 12.41,-6.364 21.07,-6.364 8.66,0 15.68,2.122 21.06,6.364 5.4,4.238 8.1,10.07 8.1,17.496 h 13.23 c 0,-11.043 -4.01,-19.77 -12.05,-26.172 -8.04,-6.41 -18.14,-9.613 -30.34,-9.613 -12.2,0 -22.3,3.203 -30.36,9.613 -8.02,6.402 -12.05,15.129 -12.05,26.172 v 38.426 c 0,11.308 3.93,20.32 11.79,27.035" /><path
         id="path44"
         style="fill:#ffffff;fill-opacity:1;fill-rule:nonzero;stroke:none"
         d="m 2776.16,260.344 h 53.02 v -11.922 h -66.25 v 11.922 35.117 11.926 35.121 11.926 h 13.23 51.69 v -11.926 h -51.69 v -35.121 h 47.72 v -11.926 h -47.72 v -35.117" /><path
         id="path46"
         style="fill:#ffffff;fill-opacity:1;fill-rule:nonzero;stroke:none"
         d="m 699.508,71.0508 h 8.672 V 1.73047 h -8.672 V 71.0508" /><path
         id="path48"
         style="fill:#ffffff;fill-opacity:1;fill-rule:nonzero;stroke:none"
         d="m 787.02,1.73047 h -8.672 V 71.0508 h 8.672 l 34.668,-54.5899 v 54.5899 h 8.648 V 1.73047 h -8.648 L 787.02,56.3203 V 1.73047" /><path
         id="path50"
         style="fill:#ffffff;fill-opacity:1;fill-rule:nonzero;stroke:none"
         d="m 895.344,63.25 v 7.8008 H 936.91 V 63.25 H 920.449 V 1.73047 h -8.644 V 63.25 h -16.461" /><path
         id="path52"
         style="fill:#ffffff;fill-opacity:1;fill-rule:nonzero;stroke:none"
         d="m 1010.57,9.53125 h 34.64 V 1.73047 H 1001.9 V 9.53125 32.4883 40.2891 63.25 71.0508 h 8.67 33.78 V 63.25 h -33.78 V 40.2891 h 31.17 v -7.8008 h -31.17 V 9.53125" /><path
         id="path54"
         style="fill:#ffffff;fill-opacity:1;fill-rule:nonzero;stroke:none"
         d="m 1139.65,63.6797 h -19.04 V 36.8203 h 19.04 c 4.87,0 8.39,1.3281 10.59,3.9883 2.19,2.6523 3.29,5.8008 3.29,9.4414 0,3.6406 -1.1,6.7891 -3.29,9.4492 -2.2,2.6602 -5.72,3.9805 -10.59,3.9805 z m 9.63,-32.75 18.11,-29.19923 H 1157 l -16.47,27.73043 h -0.88 -19.04 V 1.73047 h -8.67 V 71.0508 h 27.71 c 4.18,0 7.79,-0.6406 10.85,-1.9102 3.06,-1.2695 5.4,-2.9609 7.02,-5.0586 1.6,-2.1211 2.8,-4.3125 3.54,-6.5937 0.76,-2.2774 1.12,-4.6992 1.12,-7.2383 0,-4.1602 -1.03,-8.0312 -3.06,-11.6016 -2.05,-3.5898 -5.32,-6.1601 -9.84,-7.7187" /><path
         id="path56"
         style="fill:#ffffff;fill-opacity:1;fill-rule:nonzero;stroke:none"
         d="m 1240.19,1.73047 h -8.68 V 71.0508 h 8.68 l 34.64,-54.5899 v 54.5899 h 8.67 V 1.73047 h -8.67 L 1240.19,56.3203 V 1.73047" /><path
         id="path58"
         style="fill:#ffffff;fill-opacity:1;fill-rule:nonzero;stroke:none"
         d="M 1392.76,23.832 1378.8,59.8711 1364.85,23.832 Z m 18.1,-22.10153 h -9.53 l -5.54,14.30083 h -33.98 l -5.54,-14.30083 h -9.53 l 27.74,69.32033 h 8.65 l 27.73,-69.32033" /><path
         id="path60"
         style="fill:#ffffff;fill-opacity:1;fill-rule:nonzero;stroke:none"
         d="m 1464.6,63.25 v 7.8008 h 41.56 V 63.25 H 1489.7 V 1.73047 h -8.64 V 63.25 h -16.46" /><path
         id="path62"
         style="fill:#ffffff;fill-opacity:1;fill-rule:nonzero;stroke:none"
         d="m 1572.01,71.0508 h 8.67 V 1.73047 h -8.67 V 71.0508" /><path
         id="path64"
         style="fill:#ffffff;fill-opacity:1;fill-rule:nonzero;stroke:none"
         d="m 1695.93,46.7891 c 0,5.5429 -1.79,10.0312 -5.37,13.4726 -3.59,3.4375 -8.15,5.1485 -13.69,5.1485 -5.55,0 -10.11,-1.711 -13.69,-5.1485 -3.59,-3.4414 -5.38,-7.9297 -5.38,-13.4726 v -21.668 c 0,-5.1992 1.77,-9.3828 5.28,-12.5625 3.54,-3.17969 8.12,-4.75782 13.79,-4.75782 5.66,0 10.25,1.57813 13.78,4.75782 3.51,3.1797 5.28,7.3633 5.28,12.5625 z m 8.65,0 v -21.668 c 0,-7.6797 -2.63,-13.7813 -7.91,-18.32032 C 1691.37,2.26172 1684.77,0 1676.87,0 c -7.91,0 -14.53,2.26172 -19.81,6.80078 -5.28,4.53902 -7.93,10.64062 -7.93,18.32032 v 21.668 c 0,7.8593 2.65,14.1523 7.93,18.8906 5.28,4.7305 11.9,7.1016 19.81,7.1016 7.9,0 14.5,-2.3594 19.8,-7.0625 5.28,-4.7071 7.91,-11.0196 7.91,-18.9297" /><path
         id="path66"
         style="fill:#ffffff;fill-opacity:1;fill-rule:nonzero;stroke:none"
         d="m 1780.84,1.73047 h -8.67 V 71.0508 h 8.67 l 34.64,-54.5899 v 54.5899 h 8.68 V 1.73047 h -8.68 L 1780.84,56.3203 V 1.73047" /><path
         id="path68"
         style="fill:#ffffff;fill-opacity:1;fill-rule:nonzero;stroke:none"
         d="m 1933.41,23.832 -13.96,36.0391 -13.92,-36.0391 z m 18.11,-22.10153 h -9.54 l -5.54,14.30083 h -33.95 l -5.56,-14.30083 h -9.51 l 27.71,69.32033 h 8.68 l 27.71,-69.32033" /><path
         id="path70"
         style="fill:#ffffff;fill-opacity:1;fill-rule:nonzero;stroke:none"
         d="m 2023.43,9.53125 h 32.92 V 1.73047 h -41.59 V 9.53125 71.0508 h 8.67 V 9.53125" /><path
         id="path72"
         style="fill:none;stroke:#ffffff;stroke-width:11.23239994;stroke-linecap:butt;stroke-linejoin:miter;stroke-miterlimit:10;stroke-dasharray:none;stroke-opacity:1"
         d="m 1412.01,1225.04 c 135.22,0 244.84,-109.62 244.84,-244.837 0,-135.226 -109.62,-244.844 -244.84,-244.844 -135.22,0 -244.84,109.618 -244.84,244.844 0,135.217 109.62,244.837 244.84,244.837 z" /><path
         id="path74"
         style="fill:none;stroke:#ffffff;stroke-width:11.23239994;stroke-linecap:butt;stroke-linejoin:miter;stroke-miterlimit:10;stroke-dasharray:none;stroke-opacity:1"
         d="M 1419.2,882.094 V 1035.3 m -59.27,-128.909 c -10.28,-6.422 -23.08,-9.629 -38.41,-9.629 -21.39,0 -37.64,6.765 -49.27,20.027 -11.65,13.277 -17.33,30.055 -17.33,50.356 0,20.308 5.68,37.095 17.33,50.355 11.63,13.27 27.88,20.04 49.27,20.04 h 9.38 l 68.87,-2.43 h 19.43 v 1.82 c 0,39.77 27.34,60.11 71.04,60.11 17.93,0 32.79,-3.03 44.02,-8.81" /><path
         id="path76"
         style="fill:none;stroke:#ffffff;stroke-width:11.23239994;stroke-linecap:butt;stroke-linejoin:miter;stroke-miterlimit:10;stroke-dasharray:none;stroke-opacity:1"
         d="m 1415.59,1035.11 h 113.87 V 882.094" /></g></g></svg>