<?xml version="1.0" encoding="UTF-8"?> <svg xmlns="http://www.w3.org/2000/svg" xmlns:xlink="http://www.w3.org/1999/xlink" version="1.1" id="Layer_1" x="0px" y="0px" viewBox="0 0 370 70" style="enable-background:new 0 0 370 70;" xml:space="preserve"> <style type="text/css"> .st0{fill:#1B4BAE;} .st1{fill:none;stroke:#000000;stroke-width:2.5554;stroke-linecap:round;stroke-linejoin:round;} .st2{fill:#090909;} </style> <path d="M70.7,19.2h11.4v31.6H70.7V19.2z M87.2,19.2h10.9l10.2,17.5h0.3c-0.5-2.6-1-5.3-1-8.1v-9.5h10.9v31.6h-10.9l-9.9-16.6h-0.3 c0.4,2.2,0.7,4.2,0.7,6.3v10.3H87.2V19.2z M125.6,39.5l0.6,0.5c2,1.6,4.5,2.9,7.1,2.9c1.1,0,2.9-0.5,2.9-1.9s-1.5-1.5-2.5-1.7 l-2.3-0.4c-4.5-0.8-8.2-3.4-8.2-8.4c0-7.4,6.8-11.7,13.6-11.7c3.6,0,6.9,0.9,9.9,2.7l-3.1,8.1c-2-1.3-4.2-2.4-6.6-2.4 c-1,0-2.5,0.4-2.5,1.7c0,1.2,1.4,1.3,2.3,1.5l2.6,0.6c4.8,1.1,8.3,3.7,8.3,9.1c0,7.5-6.8,11.3-13.6,11.3c-4,0-8.5-1.1-12.1-2.9 L125.6,39.5z M149.1,19.2h24.1v10.3l-6.3-0.3v21.6h-11.4V29.2l-6.3,0.3V19.2z M176.2,19.2H190c7.1,0,13.1,3,13.1,11 c0,4.7-1.8,6.7-6.1,8.3v0.3c0.6,0.5,1.3,1,1.9,1.9l6.8,10.3h-13.1l-5-10.2h-0.2v10.2h-11.2V19.2z M187.3,33.2h0.8 c1.9,0,3.7-0.3,3.7-2.6c0-2.4-1.7-2.7-3.7-2.7h-0.9v5.3H187.3z M235.1,19.2V38c0,9.3-5.7,13.4-14.5,13.4c-8.8,0-14.5-4.2-14.5-13.4 V19.2h11.4v17.6c0,2.5,0.1,4.6,3.1,4.6s3.1-2.2,3.1-4.6V19.2H235.1z"></path> <path class="st0" d="M241.7,19.2h11.7l4.3,16.6h0.3c0.2-1.4,0.4-2.8,0.8-4.2l3.5-12.4H274l5.2,31.6h-11l-1.5-17.3h-0.3 c-0.2,1-0.4,2.1-0.8,3.1l-4.5,14.2h-6.7l-4-13.4c-0.3-1.3-0.6-2.6-0.7-3.9h-0.4c-0.1,1.2-0.2,2.5-0.3,3.8l-1.3,13.5h-11L241.7,19.2z M292.3,50.8h-12.1l10.9-31.6h12.6L315,50.8h-12.1l-1-3.9h-8.6L292.3,50.8z M299.8,39.4l-1.3-5.5c-0.3-1.3-0.5-2.7-0.7-4h-0.4 l-2.1,9.7h4.5V39.4z M317.4,19.2h13.8c7.1,0,13.1,3,13.1,11c0,4.7-1.8,6.7-6.1,8.3v0.3c0.6,0.5,1.3,1,1.9,1.9l6.8,10.3h-13.1 l-5-10.2h-0.3v10.2h-11.1V19.2z M328.5,33.2h0.8c1.9,0,3.7-0.3,3.7-2.6c0-2.4-1.7-2.7-3.7-2.7h-0.8V33.2z M345.9,19.2H370v10.3 l-6.4-0.3v21.6h-11.4V29.2l-6.3,0.3V19.2H345.9z"></path> <path class="st1" d="M39.9,31.8"></path> <path class="st1" d="M20.4,36.9"></path> <path class="st0" d="M44.7,39.5c0.1,0.3,0.1,0.5,0.2,0.8c0.2,1.9-0.8,3.5-2.2,3.7c-1.4,0.2-2.7-1.1-2.9-2.9 c-0.2-1.8,0.8-3.4,2.2-3.7c0.2,0,0.4,0,0.6,0c-0.1,1.6-0.1,2.4-0.2,3.9C43.3,40.6,43.8,40.3,44.7,39.5z M20.8,45.4 c-0.1-1.3-0.1-2-0.1-3.3c-0.2,0-0.4,0-0.6,0.1c-1.5,0.3-2.4,1.8-2,3.2c0.4,1.5,1.9,2.5,3.4,2.3s2.4-1.6,2-3.2 c-0.1-0.3-0.1-0.5-0.3-0.7C22.3,44.4,21.8,44.7,20.8,45.4z"></path> <path class="st2" d="M8.2,22.8"></path> <path class="st2" d="M9.6,22.4"></path> <path d="M36.2,61.3c-2.2,0-4.7-0.8-7.5-2.3c-0.6-0.3-0.8-1-0.5-1.5c0.3-0.5,1-0.8,1.5-0.5c3.3,1.8,6,2.4,8,1.8 c2.1-0.6,3.4-2.7,3.7-6.2c0.1-0.6,0.6-1.1,1.2-1c0.6,0.1,1.1,0.6,1,1.2c-0.6,5.7-3.2,7.6-5.4,8.3C37.7,61.2,37,61.3,36.2,61.3z M29.3,50.4c0,0,1.4-1.9,3.2-2.1c1-0.1,2,0.3,3,1.3c0.4,0.3,0.9,0.3,1.3,0c0.3-0.4,0.3-0.9,0-1.3c-1.4-1.3-2.9-1.9-4.4-1.8 c-2.7,0.3-4.4,2.8-4.5,2.9c-0.3,0.4-0.2,1,0.2,1.3c0.2,0.1,0.3,0.2,0.5,0.2C28.9,50.8,29.1,50.7,29.3,50.4z M11.8,33.4 c3.1-1,4.6-1.4,7.7-2.3c1.6,0.2,2.3,0.3,3.9,0.6c0.1-0.7,0.1-1.1,0.2-1.9c-1.5-0.5-2.2-0.7-3.7-1.2c-4,1.8-6,2.7-10,4.5 C10.7,33.2,11.1,33.3,11.8,33.4z M49.9,31.8c-4,0.5-6,0.7-10,1.3c-1.1,1.4-1.7,2-2.8,3.3c0.3,0.7,0.5,1.1,0.7,1.8 c1.2-1.1,1.9-1.6,3.1-2.7c2.9-0.8,4.4-1.2,7.4-2C49,32.8,49.3,32.5,49.9,31.8z M59,25.4c0,7-0.3,14.3-2.4,19.4 c-1,2.4-3.6,3.9-6.3,4.8c-1.6,8.5-5,21.8-14.4,20.2h-0.1c-8-1.3-15.1-9.9-20-16.8c-3-0.1-6-0.6-7.7-1.9c-4.6-3.2-7.4-9.6-7.5-9.9 c-0.2-0.3-0.1-0.7,0-1.1c0.2-0.3,0.4-0.6,0.8-0.7c2.2-0.7,4.5-1.4,6.8-2.1c-3.6-4.1-5.4-9.6-1.7-13.6c-0.1-0.9-0.9-4.1-6.4-4.1 C4.1,17.2,7,20,8.5,22l0,0c1,1.7,2.9,3.3,4.7,4.3c-0.2,0.2-0.5,0.4-0.8,0.6C7,30.7,7.8,35.8,8.2,37.4c5.8-1.8,11.6-3.5,17.4-5.1 c0.2,0,0.3-0.1,0.5,0c0.2-0.1,0.4-0.1,0.6-0.1c0.8,0.1,1.7,0,2.6-0.2c1-0.3,1.8-0.7,2.5-1.1c0.1-0.1,0.2-0.1,0.4-0.2 c0.2-0.2,0.3-0.3,0.6-0.4c6-1.6,12-3.1,17.8-4.5c-0.8-3.1-4-9.4-7.3-10.1c-5.5-1-9.6,7.5-15.4,9.6c-1.3,0.5-5.2,1.6-8.9,1.4 c-3.7-0.2-7.9-1.7-8.7-6.3c-1.6-7.8,13-17.2,20-19.3c16.6-5,20.9,11.3,20.4,24.8c2.2-0.5,4.4-1.1,6.6-1.6c0.4-0.1,0.8,0,1.1,0.3 C58.8,24.6,59,25,59,25.4z M27.5,34.7c0.3,2.6,0.6,5.5,0.5,8.2c0.8-0.5,1.8-0.9,3.1-1.1c1.3-0.2,2.4-0.2,3.3,0.1 c-1-2.7-1.7-5.7-2.3-8.4c-0.7,0.3-1.4,0.6-2.2,0.8C29.1,34.6,28.3,34.7,27.5,34.7z M20.8,49.9c1.9-0.5,3.1-1.3,3.5-2.1l0,0 c1.4-3,1-8.4,0.4-12.6c-7.1,2-14.3,4.2-21.4,6.4c1,1.9,3.1,5.4,5.9,7.4c0.9,0.6,2.5,1.1,4.3,1.3c-0.5-0.7-0.9-1.4-1.3-2 c0,0-0.2-1.9,0.8-0.5c0.6,0.8,1.2,1.7,1.9,2.6C16.9,50.5,19,50.3,20.8,49.9z M48.9,49.9c-0.5,0.1-1,0.2-1.4,0.3 c-0.8,0.1-1.7,0.1-2.5,0.1c-2.9,0-6-0.7-7.6-2.8c-0.4-0.6-0.8-1.2-1.2-1.8c-0.7-0.8-2.2-1.8-4.7-1.3c-2.5,0.4-3.6,1.8-4.1,2.8 c-0.2,0.6-0.4,1.2-0.6,1.7c-0.7,1.6-2.6,2.8-5.2,3.6c-1.3,0.4-2.9,0.6-4.5,0.6c4.7,5.8,11.2,12.4,18,13.3h0.1 C43.6,67,47.1,57.4,48.9,49.9z M56.3,27.1c-7.1,1.7-14.4,3.5-21.7,5.4c0.8,3.9,2,8.9,4,12.3c0.1,0.2,0.2,0.3,0.3,0.5 c0.2,0.3,0.4,0.5,0.5,0.8l0,0c1.1,1.4,4.3,2.1,7.7,1.6c0.9-0.1,1.7-0.3,2.4-0.5c0.2-0.8,0.3-1.6,0.5-2.3c0.4-2.1,1,0.5,1,0.5 c-0.1,0.4-0.2,0.8-0.2,1.3c1.7-0.7,2.9-1.7,3.4-2.8C55.9,39.5,56.3,33.2,56.3,27.1z"></path> </svg> 