<?xml version="1.0" encoding="UTF-8"?> <svg xmlns="http://www.w3.org/2000/svg" width="158" height="45" viewBox="0 0 158 45" fill="none"><g clip-path="url(#clip0_5403_9458)"><path d="M105.769 13.66v.818h-2.291v2.254h-.806v-2.254h-2.289v-.81h2.289v-2.254h.806v2.254l2.291-.008z" fill="#FF6357"></path><path fill-rule="evenodd" clip-rule="evenodd" d="M121.612 7.482V4.807c0-1.616-1.176-2.931-2.627-2.931-.889 0-1.483.497-1.808 1.257V.02h-.805v7.461h.811V4.807c0-1.169.808-2.116 1.805-2.116.997 0 1.802.95 1.802 2.116v2.675h.822zm-6.487-1.614c-.392 1.13-1.343 1.852-2.417 1.852-1.429 0-2.593-1.322-2.593-2.939s1.164-2.94 2.593-2.94c1.055 0 1.995.715 2.398 1.818l-.773.265c-.269-.778-.922-1.28-1.612-1.28-.975 0-1.77.954-1.77 2.129s.806 2.133 1.77 2.133c.717 0 1.359-.516 1.636-1.323l.768.285zm-9.796 1.598V4.212a2.34 2.34 0 00-.707-1.654 2.413 2.413 0 00-1.684-.685c-1.093 0-2.06.545-2.345 1.323l.771.265c.145-.4.73-.794 1.574-.794.416 0 .814.164 1.108.453.294.29.46.683.461 1.092v.516c-.274-.548-.812-.915-1.685-.915-1.351 0-2.452.88-2.452 1.96s1.109 1.96 2.452 1.96c.879 0 1.416-.367 1.685-.915v.648h.822zm-2.477-2.836c.894 0 1.622.49 1.655 1.1v.085c-.043.609-.742 1.101-1.655 1.101s-1.655-.513-1.655-1.143.76-1.143 1.655-1.143zm6.777-1.897v-.828a1.994 1.994 0 00-.309-.024c-1.055 0-1.531.701-1.711 1.707V2.159h-.822v5.318h.822V4.15c.239-.842.905-1.45 1.711-1.45.104 0 .208.012.309.034zm13.329-1.415V.505h.981v.813h-.981zm.067 6.16V2.15h.822v5.326h-.822zm3.492-1.255V2.969h1.65v-.807h-1.65V.024h-.822v2.138h-.711v.807h.711v3.254c0 .333.135.652.373.887.239.235.563.367.901.367h1.198V6.67h-1.198a.46.46 0 01-.32-.132.446.446 0 01-.132-.315zm7.777-.122a3.061 3.061 0 01-1.14 1.19 3.12 3.12 0 01-1.6.437c-1.432 0-2.595-1.322-2.595-2.923 0-1.6 1.163-2.926 2.595-2.926 1.432 0 2.592 1.322 2.592 2.926v.413h-4.343c.158.97.878 1.709 1.74 1.709.337 0 .671-.073.976-.214.305-.141.574-.348.789-.604l.986-.008zM129.803 4.4h3.492c-.159-.974-.879-1.712-1.738-1.712-.86 0-1.585.738-1.754 1.712zm8.09 3.32c1.075 0 2.026-.722 2.418-1.852l-.782-.285c-.276.807-.918 1.323-1.636 1.323-.967 0-1.772-.958-1.772-2.133s.795-2.13 1.772-2.13c.704 0 1.341.503 1.626 1.28l.773-.264c-.403-1.103-1.343-1.818-2.399-1.818-1.429 0-2.592 1.323-2.592 2.94s1.163 2.94 2.592 2.94zm4.785-4.751v3.254c0 .118.047.231.132.315a.456.456 0 00.319.132h1.198v.807h-1.198a1.28 1.28 0 01-.9-.367 1.244 1.244 0 01-.373-.887V2.969h-.712v-.807h.712V.024h.822v2.138h1.649v.807h-1.649zm4.95 4.762c1.3 0 2.321-.733 2.321-1.664 0-1.471-1.407-1.643-2.332-1.728l-.045-.005c-.44-.054-.886-.109-1.096-.26a.691.691 0 01-.333-.529c0-.404.618-.857 1.501-.857.884 0 1.499.453 1.499.857h.814c0-.934-1.018-1.666-2.321-1.666-1.303 0-2.323.732-2.323 1.666a1.445 1.445 0 00.674 1.18c.39.28.937.341 1.518.407h.01c1.118.141 1.612.255 1.612.935 0 .405-.615.854-1.499.854-.884 0-1.501-.45-1.501-.854h-.822c0 .931 1.023 1.664 2.323 1.664zm-20.195 2.847v-.812h.981v.812h-.981zm.068 6.16V11.41h.822v5.326h-.822zm-1.532-5.335h-.819l-.013.98c-.328-.76-.919-1.255-1.811-1.255-1.448 0-2.624 1.323-2.624 2.93 0 1.605 1.176 2.928 2.624 2.928.892 0 1.483-.495 1.811-1.254v.889c0 .447-.181.876-.501 1.192a1.726 1.726 0 01-1.21.493 2.617 2.617 0 01-1.881-.777l-.599.552c.322.332.709.594 1.138.772.429.178.89.267 1.355.263.671 0 1.315-.264 1.789-.732a2.474 2.474 0 00.741-1.763v-5.218zm-2.624.53c.999 0 1.805.952 1.805 2.116l-.005.008c0 1.164-.803 2.109-1.8 2.109s-1.802-.95-1.802-2.117c0-1.166.803-2.116 1.802-2.116zm-3.801 2.132v2.675h-.822v-2.675c0-1.164-.806-2.117-1.805-2.117-.999 0-1.803.95-1.803 2.117v2.675h-.821v-5.323h.821v.973c.326-.759.919-1.256 1.808-1.256 1.448 0 2.625 1.322 2.625 2.931h-.003zm-6.503 1.297a3.063 3.063 0 01-1.141 1.19 3.123 3.123 0 01-1.602.437c-1.429 0-2.592-1.323-2.592-2.924 0-1.6 1.163-2.926 2.592-2.926s2.592 1.323 2.592 2.926v.413h-4.33c.159.97.876 1.71 1.738 1.71.337 0 .67-.073.976-.215a2.27 2.27 0 00.789-.604l.978-.007zm-4.481-1.702h3.492c-.158-.973-.878-1.712-1.74-1.712-.863 0-1.593.739-1.752 1.712zm26.553 3.08v-2.675h.003c0-1.608-1.177-2.931-2.625-2.931-.889 0-1.482.497-1.807 1.256v-.973h-.822v5.323h.822v-2.675c0-1.167.808-2.117 1.805-2.117.996 0 1.802.953 1.802 2.117v2.675h.822zm6.509-1.378a3.063 3.063 0 01-1.141 1.19 3.123 3.123 0 01-1.602.437c-1.429 0-2.592-1.323-2.592-2.924 0-1.6 1.163-2.926 2.592-2.926s2.595 1.323 2.595 2.926v.413h-4.333c.159.97.876 1.71 1.738 1.71a2.311 2.311 0 001.765-.819l.978-.007zm-4.481-1.702h3.479c-.159-.973-.878-1.712-1.741-1.712-.862 0-1.579.739-1.738 1.712zm9.677 2.892a3.063 3.063 0 001.141-1.19l-.978.008a2.282 2.282 0 01-1.765.817c-.86 0-1.579-.738-1.738-1.71h4.333v-.412c0-1.603-1.166-2.926-2.595-2.926-1.429 0-2.592 1.325-2.592 2.926 0 1.6 1.163 2.924 2.592 2.924a3.126 3.126 0 001.602-.437zm.152-2.892h-3.492c.159-.973.889-1.712 1.751-1.712.863 0 1.583.739 1.741 1.712zm5.077-2.495v.829a1.462 1.462 0 00-.309-.035c-.806 0-1.472.609-1.711 1.45v3.328h-.822V11.42h.822v1.43c.18-1.006.655-1.707 1.711-1.707.104 0 .207.007.309.023zm3.129 5.826c1.303 0 2.324-.732 2.324-1.664 0-1.47-1.413-1.643-2.34-1.727l-.048-.006c-.436-.054-.881-.109-1.091-.26a.687.687 0 01-.333-.528c0-.405.613-.857 1.499-.857.887 0 1.502.452 1.502.857h.822c0-.934-1.024-1.667-2.324-1.667-1.3 0-2.321.733-2.321 1.667a1.463 1.463 0 00.675 1.18c.389.278.935.34 1.513.406l.012.001c1.118.14 1.612.254 1.612.934 0 .405-.618.855-1.502.855-.883 0-1.498-.45-1.498-.855h-.822c0 .932 1.018 1.664 2.32 1.664z" fill="#1D1D1B"></path><path d="M94.406 0H48.72v45h45.686V0z" fill="#1D1D1B"></path><path d="M65.146 15.007h3.086v8.485h.057l5.372-4.741h4.32l-5.599 4.797L77.784 30H74.01l-3.69-4.604h-.044l-2.044 1.707V30h-3.086V15.007zM30.994 41.88C41.86 37.446 47.022 25.175 42.52 14.47 38.019 3.766 25.56-1.317 14.692 3.117 3.825 7.55-1.336 19.823 3.166 30.527 7.667 41.23 20.126 46.314 30.994 41.88z" fill="#fff"></path><path d="M22.843 3.043a19.97 19.97 0 0110.975 3.279 19.525 19.525 0 017.276 8.732 19.186 19.186 0 011.124 11.242 19.368 19.368 0 01-5.406 9.962 19.85 19.85 0 01-10.115 5.325 20.027 20.027 0 01-11.413-1.107 19.693 19.693 0 01-8.866-7.166A19.25 19.25 0 013.09 22.5c.006-5.159 2.089-10.104 5.792-13.752a19.927 19.927 0 0113.962-5.705zm0-3.043C16.785 0 10.975 2.37 6.691 6.59 2.407 10.81 0 16.533 0 22.5c0 5.967 2.407 11.69 6.69 15.91C10.976 42.63 16.786 45 22.844 45c6.059 0 11.87-2.37 16.153-6.59 4.284-4.22 6.69-9.943 6.69-15.91 0-5.967-2.406-11.69-6.69-15.91C34.712 2.37 28.902 0 22.843 0z" fill="#1D1D1B"></path><path d="M15.722 18.75h3.511l3.578 7.6h.043l3.578-7.6h3.535L24.277 30H21.37l-5.647-11.25z" fill="#1D1D1B"></path></g><defs><clipPath id="clip0_5403_9458"><path fill="#fff" d="M0 0h157.5v45H0z"></path></clipPath></defs></svg> 